<svg width="1267" height="734" viewBox="0 0 1267 734" fill="none" xmlns="http://www.w3.org/2000/svg">
<g filter="url(#filter0_f_1_104)">
<path d="M1.61995 731.426C1.61995 730.638 116.479 730 118.757 730H1158.14C1160.42 730 1265.38 730.638 1265.38 731.426C1265.38 732.213 1160.42 732.852 1158.14 732.852H118.757C116.479 732.852 1.61995 732.213 1.61995 731.426Z" fill="black" fill-opacity="0.75"/>
</g>
<path d="M1172.67 727.148L1172.16 727.658C1170.66 729.158 1168.62 730 1166.5 730H1114.65C1112.52 730 1110.49 729.158 1108.99 727.658L1108.48 727.148H1172.67Z" fill="#444444"/>
<path d="M1172.67 727.148L1172.16 727.658C1170.66 729.158 1168.62 730 1166.5 730H1114.65C1112.52 730 1110.49 729.158 1108.99 727.658L1108.48 727.148H1172.67Z" fill="url(#paint0_linear_1_104)" fill-opacity="0.5"/>
<path d="M1172.67 727.148L1172.16 727.658C1170.66 729.158 1168.62 730 1166.5 730H1114.65C1112.52 730 1110.49 729.158 1108.99 727.658L1108.48 727.148H1172.67Z" fill="url(#paint1_linear_1_104)" fill-opacity="0.8"/>
<path d="M1104.2 721.445H1176.95L1172.67 727.148H1108.48L1104.2 721.445Z" fill="#C4C4C4"/>
<path d="M1104.2 721.445H1176.95L1172.67 727.148H1108.48L1104.2 721.445Z" fill="url(#paint2_linear_1_104)" fill-opacity="0.8"/>
<path d="M158.52 727.148L158.01 727.658C156.51 729.158 154.476 730 152.355 730H100.499C98.3781 730 96.3438 729.158 94.8436 727.658L94.3337 727.148H158.52Z" fill="#444444"/>
<path d="M158.52 727.148L158.01 727.658C156.51 729.158 154.476 730 152.355 730H100.499C98.3781 730 96.3438 729.158 94.8436 727.658L94.3337 727.148H158.52Z" fill="url(#paint3_linear_1_104)" fill-opacity="0.5"/>
<path d="M158.52 727.148L158.01 727.658C156.51 729.158 154.476 730 152.355 730H100.499C98.3781 730 96.3438 729.158 94.8436 727.658L94.3337 727.148H158.52Z" fill="url(#paint4_linear_1_104)" fill-opacity="0.8"/>
<path d="M90.0546 721.445H162.799L158.52 727.148H94.3337L90.0546 721.445Z" fill="#C4C4C4"/>
<path d="M90.0546 721.445H162.799L158.52 727.148H94.3337L90.0546 721.445Z" fill="url(#paint5_linear_1_104)" fill-opacity="0.8"/>
<path fill-rule="evenodd" clip-rule="evenodd" d="M33 682.539C33 681.978 33.441 681.523 33.985 681.523H1233.02C1233.56 681.523 1234 681.978 1234 682.539V701.836C1234 708.633 1230.43 715.029 1225.44 718.594C1221.94 720.38 1217.41 721.445 1212.6 721.445H54.3955C49.5867 721.445 45.0625 720.38 41.5582 718.594C36.5659 715.029 33 708.633 33 701.836V682.539Z" fill="#777777"/>
<path d="M54.3955 721.445H1212.6C1217.41 721.445 1221.94 720.38 1225.44 718.594H41.5582C45.0625 720.38 49.5867 721.445 54.3955 721.445Z" fill="url(#paint6_linear_1_104)" fill-opacity="0.4"/>
<path d="M33.985 681.523C33.441 681.523 33 681.978 33 682.539V701.836C33 708.633 36.5659 715.029 41.5582 718.594H1225.44C1230.43 715.029 1234 708.633 1234 701.836V682.539C1234 681.978 1233.56 681.523 1233.02 681.523H33.985Z" fill="url(#paint7_radial_1_104)" fill-opacity="0.6"/>
<path d="M33.985 681.523C33.441 681.523 33 681.978 33 682.539V701.836C33 708.633 36.5659 715.029 41.5582 718.594H1225.44C1230.43 715.029 1234 708.633 1234 701.836V682.539C1234 681.978 1233.56 681.523 1233.02 681.523H33.985Z" fill="url(#paint8_linear_1_104)" fill-opacity="0.5"/>
<path d="M141.404 20C141.404 8.95433 150.358 0 161.404 0H1105.6C1116.64 0 1125.6 8.95431 1125.6 20V681.523H141.404L141.404 20Z" fill="black"/>
<mask id="mask0_1_104" style="mask-type:alpha" maskUnits="userSpaceOnUse" x="157" y="15" width="953" height="636">
<path d="M157.094 26.3613C157.094 20.4641 161.862 15.6836 167.745 15.6836H579.759C581.363 15.6836 582.664 16.9874 582.664 18.5957V28.3027C582.664 30.9832 584.831 33.1561 587.505 33.1561H679.494C682.168 33.1561 684.336 30.9832 684.336 28.3027V18.5957C684.336 16.9874 685.636 15.6836 687.241 15.6836H1099.25C1105.14 15.6836 1109.91 20.4641 1109.91 26.3613C1109.91 228.59 1109.91 447.928 1109.91 650.156H157.094C157.087 447.928 157.094 228.59 157.094 26.3613Z" fill="white"/>
</mask>
<g mask="url(#mask0_1_104)">
<rect x="157.094" y="15.6836" width="952.812" height="634.473" rx="1" fill="white"/>
</g>
<rect x="141.404" y="660.137" width="984.192" height="21.3867" fill="#1B1B1B"/>
<g style="mix-blend-mode:hard-light" opacity="0.8">
<path d="M553.624 681.523H737.625C737.625 689.84 729.7 692.93 723.467 692.93H567.782C561.548 692.93 553.624 689.84 553.624 681.523Z" fill="#E1E2E3"/>
<path d="M553.624 681.523H737.625C737.625 689.84 729.7 692.93 723.467 692.93H567.782C561.548 692.93 553.624 689.84 553.624 681.523Z" fill="url(#paint9_linear_1_104)"/>
</g>
<g style="mix-blend-mode:multiply">
<path d="M553.624 681.523H737.625C737.625 689.84 729.7 692.93 723.467 692.93H567.782C561.548 692.93 553.624 689.84 553.624 681.523Z" fill="#E1E2E3"/>
<path d="M553.624 681.523H737.625C737.625 689.84 729.7 692.93 723.467 692.93H567.782C561.548 692.93 553.624 689.84 553.624 681.523Z" fill="url(#paint10_linear_1_104)"/>
</g>
<defs>
<filter id="filter0_f_1_104" x="0.619949" y="729" width="1265.76" height="4.85156" filterUnits="userSpaceOnUse" color-interpolation-filters="sRGB">
<feFlood flood-opacity="0" result="BackgroundImageFix"/>
<feBlend mode="normal" in="SourceGraphic" in2="BackgroundImageFix" result="shape"/>
<feGaussianBlur stdDeviation="0.5" result="effect1_foregroundBlur_1_104"/>
</filter>
<linearGradient id="paint0_linear_1_104" x1="1140.57" y1="727.148" x2="1140.57" y2="730" gradientUnits="userSpaceOnUse">
<stop offset="0.130273"/>
<stop offset="0.375191" stop-opacity="0"/>
</linearGradient>
<linearGradient id="paint1_linear_1_104" x1="1108.48" y1="730" x2="1172.67" y2="730" gradientUnits="userSpaceOnUse">
<stop offset="0.035499" stop-opacity="0"/>
<stop offset="0.183503"/>
<stop offset="0.398916" stop-opacity="0"/>
<stop offset="0.633378" stop-opacity="0"/>
<stop offset="0.837067"/>
<stop offset="0.970418" stop-opacity="0"/>
</linearGradient>
<linearGradient id="paint2_linear_1_104" x1="1104.2" y1="727.148" x2="1175.52" y2="727.148" gradientUnits="userSpaceOnUse">
<stop stop-opacity="0"/>
<stop offset="0.186299"/>
<stop offset="0.456756" stop-opacity="0"/>
<stop offset="0.546908" stop-opacity="0"/>
<stop offset="0.835968"/>
<stop offset="1" stop-opacity="0"/>
</linearGradient>
<linearGradient id="paint3_linear_1_104" x1="126.427" y1="727.148" x2="126.427" y2="730" gradientUnits="userSpaceOnUse">
<stop offset="0.130273"/>
<stop offset="0.375191" stop-opacity="0"/>
</linearGradient>
<linearGradient id="paint4_linear_1_104" x1="94.3337" y1="730" x2="158.52" y2="730" gradientUnits="userSpaceOnUse">
<stop offset="0.035499" stop-opacity="0"/>
<stop offset="0.183503"/>
<stop offset="0.398916" stop-opacity="0"/>
<stop offset="0.633378" stop-opacity="0"/>
<stop offset="0.837067"/>
<stop offset="0.970418" stop-opacity="0"/>
</linearGradient>
<linearGradient id="paint5_linear_1_104" x1="90.0546" y1="727.148" x2="161.373" y2="727.148" gradientUnits="userSpaceOnUse">
<stop stop-opacity="0"/>
<stop offset="0.186299"/>
<stop offset="0.456756" stop-opacity="0"/>
<stop offset="0.546908" stop-opacity="0"/>
<stop offset="0.835968"/>
<stop offset="1" stop-opacity="0"/>
</linearGradient>
<linearGradient id="paint6_linear_1_104" x1="1154.12" y1="718.594" x2="1154.12" y2="721.445" gradientUnits="userSpaceOnUse">
<stop offset="0.444236" stop-opacity="0"/>
<stop offset="0.867408"/>
</linearGradient>
<radialGradient id="paint7_radial_1_104" cx="0" cy="0" r="1" gradientUnits="userSpaceOnUse" gradientTransform="translate(633.5 718.594) rotate(-180) scale(600.5 19439)">
<stop stop-color="white" stop-opacity="0.5"/>
<stop offset="0.364583" stop-color="white" stop-opacity="0"/>
<stop offset="0.703125" stop-color="white" stop-opacity="0"/>
<stop offset="0.96875" stop-color="white"/>
<stop offset="1" stop-color="white" stop-opacity="0"/>
</radialGradient>
<linearGradient id="paint8_linear_1_104" x1="1158.4" y1="681.523" x2="1158.4" y2="718.594" gradientUnits="userSpaceOnUse">
<stop offset="0.102925" stop-opacity="0"/>
<stop offset="0.6646"/>
<stop offset="0.772607"/>
<stop offset="0.90268" stop-opacity="0.58"/>
<stop offset="1" stop-opacity="0"/>
</linearGradient>
<linearGradient id="paint9_linear_1_104" x1="737.625" y1="692.93" x2="553.624" y2="692.93" gradientUnits="userSpaceOnUse">
<stop stop-color="#8A8A8A"/>
<stop offset="0.203125" stop-color="#AAAAAA" stop-opacity="0"/>
<stop offset="0.8125" stop-color="#AAAAAA" stop-opacity="0"/>
<stop offset="1" stop-color="#8A8A8A"/>
</linearGradient>
<linearGradient id="paint10_linear_1_104" x1="737.625" y1="692.93" x2="553.624" y2="692.93" gradientUnits="userSpaceOnUse">
<stop stop-color="#8A8A8A"/>
<stop offset="0.203125" stop-color="#AAAAAA" stop-opacity="0"/>
<stop offset="0.8125" stop-color="#AAAAAA" stop-opacity="0"/>
<stop offset="1" stop-color="#8A8A8A"/>
</linearGradient>
</defs>
</svg>
